<svg xmlns="http://www.w3.org/2000/svg" viewBox="0 0 161.6 161.6"><defs></defs><g id="Laag_2" data-name="Laag 2"><g id="Laag_1-2" data-name="Laag 1"><g id="Group_1" data-name="Group 1"><path id="Path_6" data-name="Path 6" stroke="currentColor" fill="currentColor" d="M74.7,28.6,55.5,14.7a3.7,3.7,0,0,1-1.4-1.9A72.7,72.7,0,0,0,19.4,41.2l.3.6,8.6,22.6,23.9,2.9-1.8,7.5L27.7,72,8,87.9a72.5,72.5,0,0,0,11.7,33l23.8.4,16.9-21.2,6.1,4.7L50.4,125.1l7.6,25v.3a73.3,73.3,0,0,0,45.6-.1,5,5,0,0,1,.2-1.2l7.6-23.5L95.8,107.3l6.1-4.7,15.5,18h24.8a73,73,0,0,0,11.2-30.7,4,4,0,0,1-2-.9L131,71.2l-.2-.2-21.7,3.4L106.9,67l24.6-3.8,9.1-21.4a3.3,3.3,0,0,1,1.1-1.5A72.9,72.9,0,0,0,105.5,12a4.1,4.1,0,0,1-1.6,2.7L82.4,30.3V51.2H74.7V28.7Zm6.1,133a80.8,80.8,0,1,1,80.8-80.8,80.8,80.8,0,0,1-80.8,80.8ZM146.2,48.1l-8.1,19.1L153.9,81v-.2a71.8,71.8,0,0,0-7.7-32.7ZM14.5,49.9A74.9,74.9,0,0,0,7.7,78.2L21.2,67.4,14.5,50ZM62.2,10.1,79.7,22.8l18-13.1a73.1,73.1,0,0,0-35.4.4Zm50.6,136.5a72.6,72.6,0,0,0,23.6-18.3H118.7l-5.9,18.3Zm-63.9,0L43.6,129l-18-.3a73.7,73.7,0,0,0,23.4,18Z"></path><path id="Path_7" data-name="Path 7" stroke="currentColor" fill="currentColor" d="M55.2,73.1l9.5,29.1H95.3l9.4-29.1L80,55.1Zm27-25.8,29.3,21.2a3.8,3.8,0,0,1,1.4,4.3l-11.2,34.5a3.9,3.9,0,0,1-3.6,2.6H61.9a3.9,3.9,0,0,1-3.7-2.6L47,72.8a4,4,0,0,1,1.4-4.3L77.7,47.3a3.7,3.7,0,0,1,4.5,0Z"></path></g></g></g></svg>